# xmcd CD database file
#
# Track frame offsets:
#	150
#	31775
#	49838
#	70216
#	95841
#	135912
#	147977
#	165534
#	195875
#	220595
#	240214
#	258947
#	280516
#	303719
#	325962
#
# Disc length: 4656 seconds
#
# Revision: 0
# Processed by: cddbd v1.5.2PL0 Copyright (c) Steve Scherf et al.
# Submitted via: CDex 1.51
#
DISCID=c8122e0f
DTITLE=Yanni - 20 years best choice - 2
DYEAR=1900
DGENRE=New Age
TTITLE0=Santorini
TTITLE1=Aria
TTITLE2=Reflections of Passion
TTITLE3=Flight of Fantasy
TTITLE4=Standing In Motion
TTITLE5=Marching Season
TTITLE6=Adagio In C Minor
TTITLE7=Tribute
TTITLE8=Love In All
TTITLE9=Song For Anlarctica
TTITLE10=Within Attraction
TTITLE11=November Sky
TTITLE12=With An Orchid
TTITLE13=A Walk In The Rain
TTITLE14=In Your Eyes
EXTD=
EXTT0=
EXTT1=
EXTT2=
EXTT3=
EXTT4=
EXTT5=
EXTT6=
EXTT7=
EXTT8=
EXTT9=
EXTT10=
EXTT11=
EXTT12=
EXTT13=
EXTT14=
PLAYORDER=
